<svg width="256" height="256" viewBox="0 0 256 256" fill="none" xmlns="http://www.w3.org/2000/svg">
<path d="M256 184H0L128 48L256 184ZM69.5249 116.685L86.9574 135.198L104.391 116.685L86.9574 98.1168L69.5249 116.685ZM86.9574 178.796L104.391 160.284L86.9574 141.716L69.5249 160.284L86.9574 178.796ZM169.317 178.796L186.749 160.284L169.317 141.716L151.609 160.284L169.317 178.796ZM148.727 76.2626C148.623 76.4429 148.484 76.6092 148.315 76.7555C142.893 82.6162 137.403 88.4768 131.844 94.2827C131.363 94.7757 131.844 95.1043 131.844 95.5425L147.904 112.631L148.659 113.343L166.091 94.8852L148.727 76.2626ZM45.9153 178.796L46.6016 178.085L62.6615 161.051C62.9175 160.837 63.0606 160.552 63.0606 160.256C63.0606 159.96 62.9175 159.676 62.6615 159.462C57.7886 154.423 53.0531 149.274 48.2488 144.18L45.9153 141.716L28.4826 160.284L45.9153 178.796ZM90.0462 94.8304L107.479 113.343L108.028 112.851L124.431 95.4329C124.98 94.8304 124.431 94.5018 124.431 94.0636L108.371 77.0842L107.685 76.3721L90.0462 94.8304ZM90.0462 138.648L107.479 157.161L108.371 156.285C113.587 150.808 118.872 145.33 124.156 139.47C124.304 139.362 124.422 139.231 124.503 139.085C124.584 138.938 124.625 138.781 124.625 138.621C124.625 138.461 124.584 138.303 124.503 138.157C124.422 138.011 124.304 137.88 124.156 137.772C119.215 132.568 114.274 127.365 109.4 122.107L107.479 120.135L90.0462 138.648ZM172.406 138.648L189.838 157.161L207.271 138.648L189.838 120.135L172.406 138.648ZM148.727 120.081V120.464L132.186 138.046C131.637 138.539 131.844 138.867 132.186 139.306L147.56 155.738C147.972 156.23 148.452 156.723 149.001 157.271L166.434 138.758L148.727 120.081ZM66.5051 157.052C66.5877 156.892 66.7037 156.744 66.8484 156.614L83.3886 139.032C83.8693 138.484 83.3886 138.21 83.3886 137.772L67.1227 120.683C66.9095 120.438 66.6556 120.217 66.3677 120.026L49.0037 138.484L66.5051 157.052ZM169.043 135.143L186.475 116.63L169.043 98.1716L151.609 116.685L169.043 135.143ZM127.863 91.325L145.296 72.8119L128.137 54.6823H127.794L111.048 72.6476C110.944 72.7788 110.889 72.9307 110.889 73.0858C110.889 73.2409 110.944 73.3928 111.048 73.524L127.863 91.325ZM127.863 135.143L145.296 116.63L128 98.1168L110.567 116.685L127.863 135.143ZM127.863 178.961L145.296 160.448L127.863 141.88L110.567 160.284L127.863 178.961ZM210.222 178.961L227.655 160.448L210.29 142.045H209.948L193.133 159.736C192.584 160.338 193.133 160.612 193.133 160.996L206.859 175.839L210.222 178.961ZM9.88311 180.002H41.1796L25.6686 163.57L9.88311 180.002ZM215.095 180.002H246.117L230.606 163.57L215.095 180.002ZM123.059 180.002L107.479 163.57L91.8993 180.002H123.059ZM174.052 180.002H205.074L189.563 163.57L174.052 180.002ZM164.032 180.002L148.521 163.57L133.01 180.002H164.032ZM81.6729 180.002L66.1619 163.57L50.651 180.002H81.6729Z" fill="black"/>
</svg>
