<svg width="32" height="32" viewBox="0 0 32 32" fill="none" xmlns="http://www.w3.org/2000/svg">
<path d="M32 23H0L16 6L32 23ZM8.69061 14.5856L10.8697 16.8997L13.0488 14.5856L10.8697 12.2646L8.69061 14.5856ZM10.8697 22.3496L13.0488 20.0355L10.8697 17.7144L8.69061 20.0355L10.8697 22.3496ZM21.1646 22.3496L23.3437 20.0355L21.1646 17.7144L18.9512 20.0355L21.1646 22.3496ZM18.5909 9.53282C18.5778 9.55537 18.5605 9.57615 18.5394 9.59444C17.8617 10.327 17.1753 11.0596 16.4805 11.7853C16.4204 11.847 16.4805 11.888 16.4805 11.9428L18.488 14.0789L18.5823 14.1679L20.7614 11.8607L18.5909 9.53282ZM5.73941 22.3496L5.8252 22.2606L7.83269 20.1313C7.86469 20.1046 7.88258 20.069 7.88258 20.032C7.88258 19.9951 7.86469 19.9595 7.83269 19.9327C7.22358 19.3029 6.63164 18.6593 6.0311 18.0225L5.73941 17.7144L3.56032 20.0355L5.73941 22.3496ZM11.2558 11.8538L13.4348 14.1679L13.5035 14.1063L15.5539 11.9291C15.6225 11.8538 15.5539 11.8127 15.5539 11.758L13.5464 9.63552L13.4606 9.54651L11.2558 11.8538ZM11.2558 17.331L13.4348 19.6452L13.5464 19.5357C14.1984 18.851 14.859 18.1663 15.5195 17.4337C15.538 17.4203 15.5528 17.4039 15.5629 17.3856C15.573 17.3673 15.5782 17.3476 15.5782 17.3276C15.5782 17.3077 15.573 17.2879 15.5629 17.2696C15.5528 17.2514 15.538 17.235 15.5195 17.2215C14.9019 16.5711 14.2842 15.9207 13.675 15.2634L13.4348 15.0169L11.2558 17.331ZM21.5507 17.331L23.7298 19.6452L25.9088 17.331L23.7298 15.0169L21.5507 17.331ZM18.5909 15.0101V15.058L16.5233 17.2558C16.4547 17.3174 16.4805 17.3584 16.5233 17.4132L18.4451 19.4672C18.4965 19.5288 18.5565 19.5904 18.6252 19.6589L20.8043 17.3448L18.5909 15.0101ZM8.31314 19.6315C8.32346 19.6114 8.33796 19.5929 8.35605 19.5767L10.4236 17.3789C10.4837 17.3105 10.4236 17.2763 10.4236 17.2215L8.39033 15.0854C8.36369 15.0547 8.33195 15.0271 8.29597 15.0032L6.12547 17.3105L8.31314 19.6315ZM21.1303 16.8929L23.3094 14.5787L21.1303 12.2714L18.9512 14.5856L21.1303 16.8929ZM15.9828 11.4156L18.162 9.10149L16.0172 6.83528H15.9743L13.8809 9.08095C13.868 9.09735 13.8612 9.11634 13.8612 9.13572C13.8612 9.15511 13.868 9.1741 13.8809 9.19049L15.9828 11.4156ZM15.9828 16.8929L18.162 14.5787L16 12.2646L13.8209 14.5856L15.9828 16.8929ZM15.9828 22.3701L18.162 20.056L15.9828 17.735L13.8209 20.0355L15.9828 22.3701ZM26.2777 22.3701L28.4568 20.056L26.2863 17.7556H26.2435L24.1416 19.967C24.0729 20.0423 24.1416 20.0765 24.1416 20.1245L25.8574 21.9799L26.2777 22.3701ZM1.23539 22.5002H5.14745L3.20858 20.4462L1.23539 22.5002ZM26.8869 22.5002H30.7646L28.8257 20.4462L26.8869 22.5002ZM15.3823 22.5002L13.4348 20.4462L11.4874 22.5002H15.3823ZM21.7565 22.5002H25.6343L23.6954 20.4462L21.7565 22.5002ZM20.504 22.5002L18.5652 20.4462L16.6263 22.5002H20.504ZM10.2091 22.5002L8.27024 20.4462L6.33137 22.5002H10.2091Z" fill="black"/>
</svg>
